<svg xmlns="http://www.w3.org/2000/svg" viewBox="0 0 74 74">
    <!-- Browser Window Frame -->
    <path fill="#2B3033" d="M71 1H3C1.9 1 1 1.9 1 3v48c0 1.1 0.9 2 2 2h68c1.1 0 2-0.9 2-2V3c0-1.1-0.9-2-2-2zM69 49H5V13h64v36zm0-40H5V5h64v4z"/>
    
    <!-- Browser Dots -->
    <circle fill="#2B3033" cx="9" cy="7" r="2"/>
    <circle fill="#2B3033" cx="15" cy="7" r="2"/>
    <circle fill="#2B3033" cx="21" cy="7" r="2"/>
    
    <!-- Graph Bar Chart -->
    <path fill="#2B3033" d="M15 35h8c1.1 0 2-0.9 2-2V23c0-1.1-0.9-2-2-2h-8c-1.1 0-2 0.9-2 2v10c0 1.1 0.9 2 2 2zm2-10h4v6h-4v-6z"/>
    <path fill="#2B3033" d="M31 35h8c1.1 0 2-0.9 2-2V18c0-1.1-0.9-2-2-2h-8c-1.1 0-2 0.9-2 2v15c0 1.1 0.9 2 2 2zm2-15h4v11h-4V20z"/>
    <path fill="#2B3033" d="M47 35h8c1.1 0 2-0.9 2-2V28c0-1.1-0.9-2-2-2h-8c-1.1 0-2 0.9-2 2v5c0 1.1 0.9 2 2 2zm2-5h4v1h-4v-1z"/>
    
    <!-- Magnifying Glass -->
    <path fill="#2B3033" d="M63.4 42.6l-5.9-5.9c1.1-1.6 1.8-3.5 1.8-5.7c0-5.5-4.5-10-10-10s-10 4.5-10 10s4.5 10 10 10c2.2 0 4.1-0.7 5.7-1.8l5.9 5.9c0.4 0.4 0.9 0.6 1.4 0.6s1-0.2 1.4-0.6c0.7-0.8 0.7-2 0-2.5zm-14.1-5.6c-3.3 0-6-2.7-6-6s2.7-6 6-6s6 2.7 6 6-2.7 6-6 6z"/>
    
    <!-- Social Media Icons -->
    <circle fill="#2B3033" cx="20" cy="60" r="3"/>
    <circle fill="#2B3033" cx="37" cy="60" r="3"/>
    <circle fill="#2B3033" cx="54" cy="60" r="3"/>
    
    <!-- Connecting Lines -->
    <path fill="#2B3033" d="M23 60h11" stroke="#2B3033" stroke-width="2"/>
    <path fill="#2B3033" d="M40 60h11" stroke="#2B3033" stroke-width="2"/>
</svg>