<svg xmlns="http://www.w3.org/2000/svg" viewBox="0 0 74 74">
    <!-- Monitor/Screen -->
    <path fill="#2B3033" d="M64 8H10c-2.2 0-4 1.8-4 4v36c0 2.2 1.8 4 4 4h54c2.2 0 4-1.8 4-4V12c0-2.2-1.8-4-4-4zm0 40H10V12h54v36z"/>
    
    <!-- Stand -->
    <path fill="#2B3033" d="M42 54H32c-1.1 0-2 .9-2 2v4c0 1.1.9 2 2 2h10c1.1 0 2-.9 2-2v-4c0-1.1-.9-2-2-2z"/>
    <path fill="#2B3033" d="M46 60H28c-1.1 0-2 .9-2 2s.9 2 2 2h18c1.1 0 2-.9 2-2s-.9-2-2-2z"/>
    
    <!-- Gear Icon (representing settings/technology) -->
    <path fill="#2B3033" d="M37 18c-1.1 0-2 .9-2 2v2.1c-1.2.4-2.3 1-3.3 1.8l-1.8-1.8c-.8-.8-2-.8-2.8 0-.8.8-.8 2 0 2.8l1.8 1.8c-.8 1-1.4 2.1-1.8 3.3H25c-1.1 0-2 .9-2 2s.9 2 2 2h2.1c.4 1.2 1 2.3 1.8 3.3l-1.8 1.8c-.8.8-.8 2 0 2.8.4.4.9.6 1.4.6s1-.2 1.4-.6l1.8-1.8c1 .8 2.1 1.4 3.3 1.8V44c0 1.1.9 2 2 2s2-.9 2-2v-2.1c1.2-.4 2.3-1 3.3-1.8l1.8 1.8c.4.4.9.6 1.4.6s1-.2 1.4-.6c.8-.8.8-2 0-2.8l-1.8-1.8c.8-1 1.4-2.1 1.8-3.3H49c1.1 0 2-.9 2-2s-.9-2-2-2h-2.1c-.4-1.2-1-2.3-1.8-3.3l1.8-1.8c.8-.8.8-2 0-2.8-.8-.8-2-.8-2.8 0l-1.8 1.8c-1-.8-2.1-1.4-3.3-1.8V20c0-1.1-.9-2-2-2z"/>
    
    <!-- Inner Circle -->
    <path fill="#2B3033" d="M37 26c-2.8 0-5 2.2-5 5s2.2 5 5 5 5-2.2 5-5-2.2-5-5-5zm0 6c-.6 0-1-.4-1-1s.4-1 1-1 1 .4 1 1-.4 1-1 1z"/>
    
    <!-- Network Lines -->
    <path fill="#2B3033" d="M54 24c-.6 0-1 .4-1 1v10c0 .6.4 1 1 1s1-.4 1-1V25c0-.6-.4-1-1-1z"/>
    <path fill="#2B3033" d="M20 24c-.6 0-1 .4-1 1v10c0 .6.4 1 1 1s1-.4 1-1V25c0-.6-.4-1-1-1z"/>
</svg>